M48
;Layer_Color=6321
;FILE_FORMAT=2:5
INCH,LZ
;TYPE=PLATED
T1F00S00C0.01181
T2F00S00C0.01575
T3F00S00C0.01968
T4F00S00C0.02953
T5F00S00C0.03937
T6F00S00C0.12598
%
T01
X0027559Y0007874
X0064961Y0019685
X0061024Y0024409
X0086614Y0027559
X0082677Y0036614
X0084646Y0043898
X0086339Y0048898
Y0053898
X0076339
Y0043898
X0096457Y0038976
X0086339Y0058898
Y0063898
X0076339
Y0058898
X0062992Y0076772
X0066142Y0081496
X0068898Y0083858
X0062992Y0093307
X0084252Y0094488
X0092126Y0085827
Y0113386
X0098425Y0108268
X0097244Y0120866
X0097441Y0128937
X0106299Y0127953
Y0132283
X0105118Y011811
X0092126Y0133858
X0093701Y0137795
X0080709Y0132677
X007874Y0145472
X0083071Y0148819
X0070866Y0145669
X0067323Y0148819
Y0113386
X0076378Y010315
X0094488Y0159449
X0098425
X0102362
X0106299
X0147638Y0155512
T02
X0115748Y0124803
X0118898
T03
X0005906Y0031102
X0011811Y0031102
X0017717Y0031102
X0025591
X0031496Y0031102
X0037402Y0031102
X0045276
X0051181Y0031102
X0051181Y0043307
X0045276
X0037402
X0031496
X0025591
X0017717
X0011811
X0005906
Y0055512
X0011811
X0017717
X0025591
X0031496Y0055512
X0037402Y0055512
X0045276
X0051181Y0055512
X0057087Y0055512
Y0043307
Y0031102
X0072835Y0003937
X0082677
Y001378
X0057087Y0064567
Y0076772
Y0088976
Y0098032
Y0110236
Y0122441
Y0131496
Y0143701
Y0155905
X0061024Y0180709
X0055118
X0049213
X0037402
X0031496
X0025591
Y0165748
X0031496Y0165748
X0037402Y0165748
Y0151575
X0031496
X0025591
X0025197Y0141339
X0031496
X0037795
X0037402Y0132283
X0031496Y0132283
X0025591Y0132283
X0017717Y013189
X0011811Y013189
X0005906Y013189
Y0122835
X0011811Y0122835
X0017717Y0122835
X0025591Y0120079
X0031496
X0037402
X0045276Y0122441
X0051181Y0122441
X0051181Y0131496
X0045276
Y0143701
X0051181
X0051181Y0155905
X0045276Y0155905
X0017717Y0156299
X0011811Y0156299
X0005906Y0156299
Y0143701
X0011811
X0017717
Y0172835
X0011811
X0005906
Y0110236
X0011811
X001811
X0025591Y0107874
X0031496Y0107874
X0037402Y0107874
X0045276Y0110236
X0051181
Y0098032
X0045276
Y0088976
X0051181
Y0076772
X0045276
X0037402
X0031496
X0025591
X0017717
X0011811
X0005906
Y0064567
X0011811
X0017717
X0025591
X0031496Y0064567
X0037402Y0064567
X0045276
X0051181Y0064567
X0037402Y0088976
X0031496Y0088976
X0025591Y0088976
X0017717
X0011811Y0088976
X0005906Y0088976
Y0098425
X0011811Y0098425
X0017717Y0098425
T04
X0122047Y0068898
Y0076772
Y0084646
Y0139764
Y0147638
X0120079Y0167323
X0112205
X0104331
X0096457
X0061024
X005315
T05
X0122047Y0038976
Y0048976
X0132047
Y0038976
X0142047
Y0048976
X0079528Y011811
T06
X0010827Y0010827
X0140748
Y0186024
X0010827
M30
