G04*
G04 #@! TF.GenerationSoftware,Altium Limited,Altium Designer,20.0.2 (26)*
G04*
G04 Layer_Physical_Order=2*
G04 Layer_Color=11436288*
%FSLAX25Y25*%
%MOIN*%
G70*
G01*
G75*
%ADD53C,0.01000*%
%ADD54C,0.01500*%
%ADD56R,0.06693X0.06693*%
%ADD57C,0.06693*%
G04:AMPARAMS|DCode=58|XSize=47.24mil|YSize=68.9mil|CornerRadius=11.81mil|HoleSize=0mil|Usage=FLASHONLY|Rotation=90.000|XOffset=0mil|YOffset=0mil|HoleType=Round|Shape=RoundedRectangle|*
%AMROUNDEDRECTD58*
21,1,0.04724,0.04528,0,0,90.0*
21,1,0.02362,0.06890,0,0,90.0*
1,1,0.02362,0.02264,0.01181*
1,1,0.02362,0.02264,-0.01181*
1,1,0.02362,-0.02264,-0.01181*
1,1,0.02362,-0.02264,0.01181*
%
%ADD58ROUNDEDRECTD58*%
%ADD59O,0.06890X0.04724*%
G04:AMPARAMS|DCode=60|XSize=47.24mil|YSize=68.9mil|CornerRadius=11.81mil|HoleSize=0mil|Usage=FLASHONLY|Rotation=180.000|XOffset=0mil|YOffset=0mil|HoleType=Round|Shape=RoundedRectangle|*
%AMROUNDEDRECTD60*
21,1,0.04724,0.04528,0,0,180.0*
21,1,0.02362,0.06890,0,0,180.0*
1,1,0.02362,-0.01181,0.02264*
1,1,0.02362,0.01181,0.02264*
1,1,0.02362,0.01181,-0.02264*
1,1,0.02362,-0.01181,-0.02264*
%
%ADD60ROUNDEDRECTD60*%
%ADD61O,0.04724X0.06890*%
%ADD62C,0.18110*%
%ADD63C,0.03937*%
%ADD64C,0.01968*%
%ADD65C,0.03150*%
%ADD67C,0.05315*%
G36*
X136158Y194745D02*
X135246Y194257D01*
X133746Y193026D01*
X132514Y191525D01*
X131599Y189813D01*
X131035Y187956D01*
X130845Y186024D01*
X131035Y184092D01*
X131599Y182234D01*
X132514Y180522D01*
X133746Y179021D01*
X135246Y177790D01*
X136958Y176875D01*
X138816Y176311D01*
X140748Y176121D01*
X142680Y176311D01*
X144538Y176875D01*
X146250Y177790D01*
X147750Y179021D01*
X148982Y180522D01*
X149469Y181434D01*
X149969Y181308D01*
Y15542D01*
X149469Y15417D01*
X148982Y16329D01*
X147750Y17829D01*
X146250Y19061D01*
X144538Y19976D01*
X142680Y20539D01*
X140748Y20730D01*
X138816Y20539D01*
X136958Y19976D01*
X135246Y19061D01*
X133746Y17829D01*
X132514Y16329D01*
X131599Y14616D01*
X131035Y12759D01*
X130845Y10827D01*
X131035Y8895D01*
X131599Y7037D01*
X132514Y5325D01*
X133746Y3824D01*
X135246Y2593D01*
X136158Y2106D01*
X136033Y1606D01*
X15542D01*
X15417Y2106D01*
X16329Y2593D01*
X17829Y3824D01*
X19061Y5325D01*
X19976Y7037D01*
X20539Y8895D01*
X20730Y10827D01*
X20539Y12759D01*
X19976Y14616D01*
X19061Y16329D01*
X17829Y17829D01*
X16329Y19061D01*
X14616Y19976D01*
X12759Y20539D01*
X10827Y20730D01*
X8895Y20539D01*
X7037Y19976D01*
X5325Y19061D01*
X3824Y17829D01*
X2593Y16329D01*
X2106Y15417D01*
X1606Y15542D01*
X1606Y148428D01*
X1767Y148560D01*
X2106Y148740D01*
X2362Y148689D01*
X17717D01*
X18068Y148758D01*
X18365Y148957D01*
X25971Y156563D01*
X37021Y156563D01*
X44627Y148957D01*
X44925Y148758D01*
X45276Y148689D01*
X61310Y148689D01*
Y94181D01*
X61217Y94042D01*
X61071Y93307D01*
X61217Y92572D01*
X61310Y92433D01*
Y77645D01*
X61217Y77507D01*
X61071Y76772D01*
X61217Y76037D01*
X61310Y75898D01*
Y27075D01*
X60452Y26217D01*
X60288Y26184D01*
X59665Y25768D01*
X59249Y25145D01*
X59102Y24409D01*
X59249Y23674D01*
X59665Y23051D01*
X60288Y22635D01*
X61024Y22488D01*
X61759Y22635D01*
X62382Y23051D01*
X62799Y23674D01*
X62831Y23838D01*
X64182Y25188D01*
X64182Y25188D01*
X64546Y25734D01*
X64675Y26378D01*
Y59586D01*
X65175Y59738D01*
X65205Y59693D01*
X75013Y49884D01*
Y45125D01*
X74658Y44594D01*
X74519Y43898D01*
X74658Y43202D01*
X75052Y42611D01*
X75642Y42217D01*
X76339Y42078D01*
X77035Y42217D01*
X77308Y42400D01*
X77808Y42132D01*
Y35039D01*
X77909Y34532D01*
X78197Y34102D01*
X84809Y27490D01*
X84933Y26863D01*
X85328Y26273D01*
X85918Y25878D01*
X86556Y25752D01*
X86677Y25549D01*
X86773Y25262D01*
X82522Y21011D01*
X66189D01*
X65657Y21366D01*
X64961Y21504D01*
X64264Y21366D01*
X63674Y20971D01*
X63280Y20381D01*
X63141Y19685D01*
X63280Y18989D01*
X63674Y18399D01*
X64264Y18004D01*
X64961Y17866D01*
X65657Y18004D01*
X66189Y18360D01*
X83071D01*
X83578Y18461D01*
X84008Y18748D01*
X92276Y27016D01*
X92563Y27446D01*
X92664Y27953D01*
Y43898D01*
X92563Y44405D01*
X92276Y44835D01*
X88144Y48967D01*
X88019Y49594D01*
X87625Y50184D01*
X87035Y50578D01*
X86339Y50717D01*
X85642Y50578D01*
X85052Y50184D01*
X84658Y49594D01*
X84519Y48898D01*
X84658Y48202D01*
X85052Y47611D01*
X85642Y47217D01*
X86270Y47092D01*
X90013Y43349D01*
Y28502D01*
X88912Y27400D01*
X88624Y27496D01*
X88422Y27617D01*
X88295Y28255D01*
X87901Y28845D01*
X87310Y29240D01*
X86683Y29364D01*
X80459Y35588D01*
Y51102D01*
X80358Y51610D01*
X80071Y52040D01*
X78144Y53967D01*
X78019Y54594D01*
X77625Y55184D01*
X77035Y55578D01*
X76408Y55703D01*
X75199Y56912D01*
X75517Y57300D01*
X75642Y57217D01*
X76339Y57078D01*
X77035Y57217D01*
X77625Y57611D01*
X78019Y58201D01*
X78144Y58829D01*
X80465Y61149D01*
X80752Y61579D01*
X80853Y62087D01*
X81352Y62083D01*
Y45866D01*
X81453Y45359D01*
X81740Y44929D01*
X82840Y43829D01*
X82965Y43202D01*
X83359Y42611D01*
X83950Y42217D01*
X84646Y42078D01*
X85342Y42217D01*
X85932Y42611D01*
X86326Y43202D01*
X86465Y43898D01*
X86326Y44594D01*
X85932Y45184D01*
X85342Y45578D01*
X84715Y45703D01*
X84003Y46415D01*
Y63162D01*
X84503Y63499D01*
X84607Y63457D01*
X84658Y63201D01*
X85052Y62611D01*
X85642Y62217D01*
X86339Y62078D01*
X86462Y62103D01*
X86971Y61730D01*
X87000Y61434D01*
X86270Y60703D01*
X85642Y60578D01*
X85052Y60184D01*
X84658Y59594D01*
X84519Y58898D01*
X84658Y58201D01*
X85052Y57611D01*
X85642Y57217D01*
X86339Y57078D01*
X87035Y57217D01*
X87160Y57300D01*
X87479Y56912D01*
X86270Y55703D01*
X85642Y55578D01*
X85052Y55184D01*
X84658Y54594D01*
X84519Y53898D01*
X84658Y53202D01*
X85052Y52611D01*
X85642Y52217D01*
X86339Y52078D01*
X87035Y52217D01*
X87625Y52611D01*
X88019Y53202D01*
X88144Y53829D01*
X91488Y57173D01*
X91776Y57603D01*
X91877Y58110D01*
Y68504D01*
X91776Y69011D01*
X91488Y69441D01*
X90302Y70628D01*
Y147244D01*
X90201Y147751D01*
X89914Y148181D01*
X85977Y152118D01*
X85547Y152406D01*
X85039Y152507D01*
X80709D01*
X80709Y152507D01*
X80201Y152406D01*
X79771Y152118D01*
X77797Y150144D01*
X68551D01*
X68019Y150500D01*
X67885Y150526D01*
X67721Y151069D01*
X77152Y160500D01*
X115354Y160500D01*
X115706Y160570D01*
X116003Y160768D01*
X116202Y161066D01*
X116272Y161417D01*
Y164516D01*
X116772Y164566D01*
X116843Y164208D01*
X117325Y163487D01*
X118047Y163005D01*
X118898Y162835D01*
X119079D01*
Y167323D01*
Y171810D01*
X118898D01*
X118047Y171641D01*
X117325Y171159D01*
X116843Y170438D01*
X116772Y170080D01*
X116272Y170129D01*
Y173228D01*
X116202Y173580D01*
X116003Y173877D01*
X115706Y174076D01*
X115354Y174146D01*
X75197D01*
X74846Y174076D01*
X74548Y173877D01*
X64693Y164023D01*
X64653Y164040D01*
X64281Y164317D01*
X64429Y165059D01*
Y166323D01*
X62024D01*
Y162835D01*
X62205D01*
X62560Y162906D01*
X62878Y162459D01*
X62806Y162335D01*
X50409Y162335D01*
X43595Y169905D01*
X43576Y169920D01*
X43562Y169940D01*
X43433Y170027D01*
X43309Y170120D01*
X43285Y170125D01*
X43264Y170139D01*
X43112Y170169D01*
X42962Y170208D01*
X42937Y170204D01*
X42913Y170209D01*
X2362Y170209D01*
X2106Y170158D01*
X1767Y170338D01*
X1606Y170470D01*
Y181308D01*
X2106Y181434D01*
X2593Y180522D01*
X3824Y179021D01*
X5325Y177790D01*
X7037Y176875D01*
X8895Y176311D01*
X10827Y176121D01*
X12759Y176311D01*
X14616Y176875D01*
X16329Y177790D01*
X17829Y179021D01*
X19061Y180522D01*
X19976Y182234D01*
X20539Y184092D01*
X20730Y186024D01*
X20539Y187956D01*
X19976Y189813D01*
X19061Y191525D01*
X17829Y193026D01*
X16329Y194257D01*
X15417Y194745D01*
X15542Y195245D01*
X136033D01*
X136158Y194745D01*
D02*
G37*
G36*
X115354Y161417D02*
X76772Y161417D01*
X64961Y149606D01*
X45276Y149606D01*
X37402Y157480D01*
X25591Y157480D01*
X17717Y149606D01*
X2362D01*
X2362Y169291D01*
X42913Y169291D01*
X50000Y161417D01*
X63386Y161417D01*
X75197Y173228D01*
X115354D01*
Y161417D01*
D02*
G37*
G36*
X65597Y148348D02*
X65642Y148123D01*
X66036Y147532D01*
X66627Y147138D01*
X67323Y147000D01*
X68019Y147138D01*
X68551Y147493D01*
X77653D01*
X77805Y146993D01*
X77454Y146759D01*
X77059Y146169D01*
X76921Y145472D01*
X77059Y144776D01*
X77454Y144186D01*
X78044Y143792D01*
X78632Y143675D01*
X82160Y140147D01*
Y121079D01*
X81660Y120832D01*
X81271Y121130D01*
X80430Y121479D01*
X79528Y121598D01*
X78625Y121479D01*
X77784Y121130D01*
X77062Y120576D01*
X76508Y119854D01*
X76159Y119013D01*
X76040Y118110D01*
X76159Y117208D01*
X76508Y116367D01*
X77062Y115644D01*
X77784Y115090D01*
X78202Y114917D01*
Y104531D01*
X77702Y104379D01*
X77664Y104436D01*
X77074Y104830D01*
X76378Y104969D01*
X75682Y104830D01*
X75092Y104436D01*
X74697Y103846D01*
X74559Y103150D01*
X74697Y102453D01*
X75052Y101922D01*
Y65184D01*
X75052Y65184D01*
X74658Y64594D01*
X74519Y63898D01*
X74658Y63201D01*
X75052Y62611D01*
X75642Y62217D01*
X76339Y62078D01*
X77035Y62217D01*
X77160Y62300D01*
X77478Y61912D01*
X76270Y60703D01*
X75642Y60578D01*
X75052Y60184D01*
X74658Y59594D01*
X74519Y58898D01*
X74658Y58201D01*
X74741Y58076D01*
X74353Y57758D01*
X70223Y61888D01*
Y82630D01*
X70578Y83162D01*
X70717Y83858D01*
X70578Y84554D01*
X70184Y85145D01*
X69594Y85539D01*
X68898Y85677D01*
X68202Y85539D01*
X67967Y85382D01*
X67467Y85650D01*
Y111595D01*
X68019Y111705D01*
X68609Y112100D01*
X69004Y112690D01*
X69142Y113386D01*
X69004Y114082D01*
X68609Y114672D01*
X68019Y115067D01*
X67323Y115205D01*
X66627Y115067D01*
X66036Y114672D01*
X65642Y114082D01*
X65517Y113455D01*
X65205Y113142D01*
X65175Y113097D01*
X64675Y113249D01*
Y148689D01*
X64961D01*
X65312Y148758D01*
X65597Y148348D01*
D02*
G37*
G36*
X81332Y149223D02*
X81252Y148819D01*
X81390Y148123D01*
X81784Y147532D01*
X82375Y147138D01*
X83002Y147013D01*
X85682Y144333D01*
Y96280D01*
X85182Y96012D01*
X84948Y96169D01*
X84252Y96307D01*
X83556Y96169D01*
X83306Y96002D01*
X82806Y96269D01*
Y113609D01*
X84422Y115225D01*
X84710Y115655D01*
X84811Y116162D01*
Y140696D01*
X84710Y141203D01*
X84422Y141633D01*
X80554Y145502D01*
X80421Y146169D01*
X80027Y146759D01*
X79436Y147153D01*
X79172Y147206D01*
X79066Y147737D01*
X79284Y147882D01*
X80871Y149469D01*
X81332Y149223D01*
D02*
G37*
%LPC*%
G36*
X121260Y171810D02*
X121079D01*
Y168323D01*
X123484D01*
Y169587D01*
X123314Y170438D01*
X122832Y171159D01*
X122111Y171641D01*
X121260Y171810D01*
D02*
G37*
G36*
X62205D02*
X62024D01*
Y168323D01*
X64429D01*
Y169587D01*
X64259Y170438D01*
X63777Y171159D01*
X63056Y171641D01*
X62205Y171810D01*
D02*
G37*
G36*
X60024D02*
X59842D01*
X58991Y171641D01*
X58270Y171159D01*
X57788Y170438D01*
X57619Y169587D01*
Y168323D01*
X60024D01*
Y171810D01*
D02*
G37*
G36*
X53150Y171595D02*
X52324Y171486D01*
X51555Y171168D01*
X50894Y170661D01*
X50387Y170000D01*
X50069Y169231D01*
X49960Y168405D01*
Y166240D01*
X50069Y165415D01*
X50387Y164645D01*
X50894Y163985D01*
X51555Y163478D01*
X52324Y163159D01*
X53150Y163051D01*
X53975Y163159D01*
X54744Y163478D01*
X55405Y163985D01*
X55912Y164645D01*
X56230Y165415D01*
X56339Y166240D01*
Y168405D01*
X56230Y169231D01*
X55912Y170000D01*
X55405Y170661D01*
X54744Y171168D01*
X53975Y171486D01*
X53150Y171595D01*
D02*
G37*
G36*
X123484Y166323D02*
X121079D01*
Y162835D01*
X121260D01*
X122111Y163005D01*
X122832Y163487D01*
X123314Y164208D01*
X123484Y165059D01*
Y166323D01*
D02*
G37*
G36*
X60024D02*
X57619D01*
Y165059D01*
X57788Y164208D01*
X58270Y163487D01*
X58991Y163005D01*
X59842Y162835D01*
X60024D01*
Y166323D01*
D02*
G37*
G36*
X93701Y139614D02*
X93005Y139476D01*
X92414Y139082D01*
X92020Y138491D01*
X91882Y137795D01*
X92020Y137099D01*
X92414Y136509D01*
X93005Y136115D01*
X93632Y135990D01*
X98408Y131213D01*
X98382Y131040D01*
X98360Y131001D01*
X97823Y130680D01*
X97441Y130756D01*
X96745Y130618D01*
X96155Y130223D01*
X95760Y129633D01*
X95635Y129006D01*
X93945Y127315D01*
X93657Y126885D01*
X93556Y126378D01*
Y119291D01*
X93657Y118784D01*
X93945Y118354D01*
X97100Y115199D01*
Y109496D01*
X96745Y108964D01*
X96620Y108337D01*
X95519Y107237D01*
X95232Y106806D01*
X95131Y106299D01*
Y40204D01*
X94776Y39673D01*
X94638Y38976D01*
X94776Y38280D01*
X95170Y37690D01*
X95761Y37296D01*
X96457Y37157D01*
X97153Y37296D01*
X97743Y37690D01*
X98137Y38280D01*
X98276Y38976D01*
X98137Y39673D01*
X97782Y40204D01*
Y105750D01*
X98494Y106462D01*
X99121Y106587D01*
X99712Y106981D01*
X100106Y107571D01*
X100244Y108268D01*
X100106Y108964D01*
X99751Y109496D01*
Y115748D01*
X99650Y116255D01*
X99362Y116685D01*
X97466Y118581D01*
X97631Y119124D01*
X97940Y119185D01*
X98531Y119580D01*
X98925Y120170D01*
X99063Y120866D01*
X98925Y121562D01*
X98570Y122094D01*
Y124648D01*
X100937Y127015D01*
X101225Y127445D01*
X101326Y127953D01*
Y131496D01*
X101225Y132003D01*
X100937Y132433D01*
X95506Y137864D01*
X95381Y138491D01*
X94987Y139082D01*
X94397Y139476D01*
X93701Y139614D01*
D02*
G37*
G36*
X39764Y146485D02*
X23228D01*
X22916Y146423D01*
X22652Y146246D01*
X22475Y145981D01*
X22413Y145669D01*
Y141401D01*
X22404Y141339D01*
X22413Y141276D01*
Y125984D01*
X22475Y125672D01*
X22652Y125408D01*
X22916Y125231D01*
X23228Y125169D01*
X39764D01*
X40076Y125231D01*
X40341Y125408D01*
X40517Y125672D01*
X40579Y125984D01*
Y141276D01*
X40588Y141339D01*
X40579Y141401D01*
Y145669D01*
X40517Y145981D01*
X40341Y146246D01*
X40076Y146423D01*
X39764Y146485D01*
D02*
G37*
G36*
X126378Y152886D02*
X117717D01*
X117365Y152816D01*
X117068Y152617D01*
X116869Y152320D01*
X116799Y151969D01*
Y128788D01*
X115426Y127689D01*
X113739D01*
X113388Y127619D01*
X113091Y127420D01*
X112737Y127067D01*
X112538Y126769D01*
X112468Y126418D01*
X112468Y122835D01*
X112538Y122484D01*
X112737Y122186D01*
X113035Y121987D01*
X113386Y121917D01*
X119685Y121917D01*
X120036Y121987D01*
X120334Y122186D01*
X127027Y128879D01*
X127226Y129176D01*
X127296Y129527D01*
Y151969D01*
X127226Y152320D01*
X127027Y152617D01*
X126729Y152816D01*
X126378Y152886D01*
D02*
G37*
G36*
X59449Y138611D02*
X42913D01*
X42601Y138549D01*
X42337Y138372D01*
X42160Y138107D01*
X42098Y137795D01*
Y116142D01*
X42160Y115830D01*
X42337Y115565D01*
X42601Y115388D01*
X42913Y115326D01*
X59449D01*
X59761Y115388D01*
X60026Y115565D01*
X60202Y115830D01*
X60264Y116142D01*
Y137795D01*
X60202Y138107D01*
X60026Y138372D01*
X59761Y138549D01*
X59449Y138611D01*
D02*
G37*
G36*
X20079D02*
X3543D01*
X3231Y138549D01*
X2967Y138372D01*
X2790Y138107D01*
X2728Y137795D01*
Y116142D01*
X2790Y115830D01*
X2967Y115565D01*
X3231Y115388D01*
X3543Y115326D01*
X20079D01*
X20391Y115388D01*
X20655Y115565D01*
X20832Y115830D01*
X20894Y116142D01*
Y137795D01*
X20832Y138107D01*
X20655Y138372D01*
X20391Y138549D01*
X20079Y138611D01*
D02*
G37*
G36*
X59449Y105146D02*
X42913D01*
X42601Y105084D01*
X42337Y104908D01*
X42160Y104643D01*
X42098Y104331D01*
Y82677D01*
X42160Y82365D01*
X42337Y82100D01*
X42601Y81924D01*
X42913Y81862D01*
X59449D01*
X59761Y81924D01*
X60026Y82100D01*
X60202Y82365D01*
X60264Y82677D01*
Y104331D01*
X60202Y104643D01*
X60026Y104908D01*
X59761Y105084D01*
X59449Y105146D01*
D02*
G37*
G36*
X39764Y114989D02*
X23228D01*
X22916Y114927D01*
X22652Y114750D01*
X22475Y114485D01*
X22413Y114173D01*
Y82677D01*
X22475Y82365D01*
X22652Y82100D01*
X22916Y81924D01*
X23228Y81862D01*
X39764D01*
X40076Y81924D01*
X40341Y82100D01*
X40517Y82365D01*
X40580Y82677D01*
Y114173D01*
X40517Y114485D01*
X40341Y114750D01*
X40076Y114927D01*
X39764Y114989D01*
D02*
G37*
G36*
X20079Y105146D02*
X3543D01*
X3231Y105084D01*
X2967Y104908D01*
X2790Y104643D01*
X2728Y104331D01*
Y82677D01*
X2790Y82365D01*
X2967Y82100D01*
X3231Y81924D01*
X3543Y81862D01*
X20079D01*
X20391Y81924D01*
X20655Y82100D01*
X20832Y82365D01*
X20894Y82677D01*
Y104331D01*
X20832Y104643D01*
X20655Y104908D01*
X20391Y105084D01*
X20079Y105146D01*
D02*
G37*
G36*
X123130Y87835D02*
X120965D01*
X120139Y87726D01*
X119370Y87408D01*
X118709Y86901D01*
X118202Y86240D01*
X117884Y85471D01*
X117775Y84646D01*
X117884Y83820D01*
X118202Y83051D01*
X118709Y82390D01*
X119370Y81884D01*
X120139Y81565D01*
X120965Y81456D01*
X123130D01*
X123955Y81565D01*
X124725Y81884D01*
X125385Y82390D01*
X125892Y83051D01*
X126211Y83820D01*
X126319Y84646D01*
X126211Y85471D01*
X125892Y86240D01*
X125385Y86901D01*
X124725Y87408D01*
X123955Y87726D01*
X123130Y87835D01*
D02*
G37*
G36*
Y79961D02*
X120965D01*
X120139Y79852D01*
X119370Y79534D01*
X118709Y79027D01*
X118202Y78366D01*
X117884Y77597D01*
X117775Y76772D01*
X117884Y75946D01*
X118202Y75177D01*
X118709Y74516D01*
X119370Y74010D01*
X120139Y73691D01*
X120965Y73582D01*
X123130D01*
X123955Y73691D01*
X124725Y74010D01*
X125385Y74516D01*
X125892Y75177D01*
X126211Y75946D01*
X126319Y76772D01*
X126211Y77597D01*
X125892Y78366D01*
X125385Y79027D01*
X124725Y79534D01*
X123955Y79852D01*
X123130Y79961D01*
D02*
G37*
G36*
X124311Y72303D02*
X123047D01*
Y69898D01*
X126535D01*
Y70079D01*
X126366Y70930D01*
X125883Y71651D01*
X125162Y72133D01*
X124311Y72303D01*
D02*
G37*
G36*
X121047D02*
X119783D01*
X118932Y72133D01*
X118211Y71651D01*
X117729Y70930D01*
X117560Y70079D01*
Y69898D01*
X121047D01*
Y72303D01*
D02*
G37*
G36*
X126535Y67898D02*
X123047D01*
Y65493D01*
X124311D01*
X125162Y65662D01*
X125883Y66144D01*
X126366Y66865D01*
X126535Y67716D01*
Y67898D01*
D02*
G37*
G36*
X121047D02*
X117560D01*
Y67716D01*
X117729Y66865D01*
X118211Y66144D01*
X118932Y65662D01*
X119783Y65493D01*
X121047D01*
Y67898D01*
D02*
G37*
G36*
X143047Y53229D02*
Y49976D01*
X146300D01*
X146282Y50111D01*
X145844Y51168D01*
X145147Y52076D01*
X144239Y52773D01*
X143182Y53211D01*
X143047Y53229D01*
D02*
G37*
G36*
X141047D02*
X140913Y53211D01*
X139855Y52773D01*
X138947Y52076D01*
X138251Y51168D01*
X137813Y50111D01*
X137795Y49976D01*
X141047D01*
Y53229D01*
D02*
G37*
G36*
X59449Y71682D02*
X42913D01*
X42601Y71620D01*
X42337Y71443D01*
X42160Y71178D01*
X42098Y70866D01*
Y49213D01*
X42160Y48900D01*
X42337Y48636D01*
X42601Y48459D01*
X42913Y48397D01*
X59449D01*
X59761Y48459D01*
X60026Y48636D01*
X60202Y48900D01*
X60264Y49213D01*
Y70866D01*
X60202Y71178D01*
X60026Y71443D01*
X59761Y71620D01*
X59449Y71682D01*
D02*
G37*
G36*
X39764D02*
X23228D01*
X22916Y71620D01*
X22652Y71443D01*
X22475Y71178D01*
X22413Y70866D01*
Y49213D01*
X22475Y48900D01*
X22652Y48636D01*
X22916Y48459D01*
X23228Y48397D01*
X39764D01*
X40076Y48459D01*
X40341Y48636D01*
X40517Y48900D01*
X40580Y49213D01*
Y70866D01*
X40517Y71178D01*
X40341Y71443D01*
X40076Y71620D01*
X39764Y71682D01*
D02*
G37*
G36*
X20079D02*
X3543D01*
X3231Y71620D01*
X2967Y71443D01*
X2790Y71178D01*
X2728Y70866D01*
Y49213D01*
X2790Y48900D01*
X2967Y48636D01*
X3231Y48459D01*
X3543Y48397D01*
X20079D01*
X20391Y48459D01*
X20655Y48636D01*
X20832Y48900D01*
X20894Y49213D01*
Y70866D01*
X20832Y71178D01*
X20655Y71443D01*
X20391Y71620D01*
X20079Y71682D01*
D02*
G37*
G36*
X132047Y53159D02*
X130965Y53016D01*
X129956Y52598D01*
X129090Y51934D01*
X128425Y51068D01*
X128007Y50059D01*
X127865Y48976D01*
X128007Y47894D01*
X128425Y46885D01*
X129090Y46019D01*
X129956Y45355D01*
X130965Y44937D01*
X132047Y44794D01*
X133130Y44937D01*
X134138Y45355D01*
X135004Y46019D01*
X135669Y46885D01*
X136087Y47894D01*
X136230Y48976D01*
X136087Y50059D01*
X135669Y51068D01*
X135004Y51934D01*
X134138Y52598D01*
X133130Y53016D01*
X132047Y53159D01*
D02*
G37*
G36*
X146300Y47976D02*
X143047D01*
Y44724D01*
X143182Y44742D01*
X144239Y45180D01*
X145147Y45876D01*
X145844Y46784D01*
X146282Y47842D01*
X146300Y47976D01*
D02*
G37*
G36*
X141047D02*
X137795D01*
X137813Y47842D01*
X138251Y46784D01*
X138947Y45876D01*
X139855Y45180D01*
X140913Y44742D01*
X141047Y44724D01*
Y47976D01*
D02*
G37*
G36*
X122047Y53259D02*
X120939Y53114D01*
X119906Y52686D01*
X119019Y52005D01*
X118338Y51118D01*
X117910Y50085D01*
X117764Y48976D01*
X117910Y47868D01*
X118338Y46835D01*
X119019Y45948D01*
X119906Y45267D01*
X120939Y44839D01*
X122047Y44693D01*
X123156Y44839D01*
X124189Y45267D01*
X125076Y45948D01*
X125757Y46835D01*
X126184Y47868D01*
X126330Y48976D01*
X126184Y50085D01*
X125757Y51118D01*
X125076Y52005D01*
X124189Y52686D01*
X123156Y53114D01*
X122047Y53259D01*
D02*
G37*
G36*
X126194Y43123D02*
X117901D01*
Y34830D01*
X126194D01*
Y43123D01*
D02*
G37*
G36*
X142047Y43159D02*
X140965Y43016D01*
X139956Y42598D01*
X139090Y41934D01*
X138425Y41067D01*
X138007Y40059D01*
X137865Y38976D01*
X138007Y37894D01*
X138425Y36885D01*
X139090Y36019D01*
X139956Y35355D01*
X140965Y34937D01*
X142047Y34794D01*
X143130Y34937D01*
X144138Y35355D01*
X145004Y36019D01*
X145669Y36885D01*
X146087Y37894D01*
X146230Y38976D01*
X146087Y40059D01*
X145669Y41067D01*
X145004Y41934D01*
X144138Y42598D01*
X143130Y43016D01*
X142047Y43159D01*
D02*
G37*
G36*
X132047D02*
X130965Y43016D01*
X129956Y42598D01*
X129090Y41934D01*
X128425Y41067D01*
X128007Y40059D01*
X127865Y38976D01*
X128007Y37894D01*
X128425Y36885D01*
X129090Y36019D01*
X129956Y35355D01*
X130965Y34937D01*
X132047Y34794D01*
X133130Y34937D01*
X134138Y35355D01*
X135004Y36019D01*
X135669Y36885D01*
X136087Y37894D01*
X136230Y38976D01*
X136087Y40059D01*
X135669Y41067D01*
X135004Y41934D01*
X134138Y42598D01*
X133130Y43016D01*
X132047Y43159D01*
D02*
G37*
G36*
X51181Y33895D02*
X50458Y33800D01*
X49785Y33521D01*
X49207Y33077D01*
X48763Y32499D01*
X48484Y31825D01*
X48480Y31800D01*
X47976D01*
X47973Y31825D01*
X47694Y32499D01*
X47250Y33077D01*
X46672Y33521D01*
X45998Y33800D01*
X45276Y33895D01*
X44553Y33800D01*
X43879Y33521D01*
X43301Y33077D01*
X42857Y32499D01*
X42578Y31825D01*
X42483Y31102D01*
X42578Y30380D01*
X42857Y29706D01*
X43301Y29128D01*
X43879Y28684D01*
X44553Y28405D01*
X45276Y28310D01*
X45998Y28405D01*
X46672Y28684D01*
X47250Y29128D01*
X47694Y29706D01*
X47973Y30380D01*
X47976Y30405D01*
X48480D01*
X48484Y30380D01*
X48763Y29706D01*
X49207Y29128D01*
X49785Y28684D01*
X50458Y28405D01*
X51181Y28310D01*
X51904Y28405D01*
X52577Y28684D01*
X53156Y29128D01*
X53599Y29706D01*
X53878Y30380D01*
X53882Y30405D01*
X54386D01*
X54389Y30380D01*
X54668Y29706D01*
X55112Y29128D01*
X55690Y28684D01*
X56364Y28405D01*
X57087Y28310D01*
X57809Y28405D01*
X58483Y28684D01*
X59061Y29128D01*
X59505Y29706D01*
X59784Y30380D01*
X59879Y31102D01*
X59784Y31825D01*
X59505Y32499D01*
X59061Y33077D01*
X58483Y33521D01*
X57809Y33800D01*
X57087Y33895D01*
X56364Y33800D01*
X55690Y33521D01*
X55112Y33077D01*
X54668Y32499D01*
X54389Y31825D01*
X54386Y31800D01*
X53882D01*
X53878Y31825D01*
X53599Y32499D01*
X53156Y33077D01*
X52577Y33521D01*
X51904Y33800D01*
X51181Y33895D01*
D02*
G37*
G36*
X31496D02*
X30773Y33800D01*
X30100Y33521D01*
X29522Y33077D01*
X29078Y32499D01*
X28799Y31825D01*
X28795Y31800D01*
X28291D01*
X28288Y31825D01*
X28009Y32499D01*
X27565Y33077D01*
X26987Y33521D01*
X26313Y33800D01*
X25591Y33895D01*
X24868Y33800D01*
X24194Y33521D01*
X23616Y33077D01*
X23172Y32499D01*
X22893Y31825D01*
X22798Y31102D01*
X22893Y30380D01*
X23172Y29706D01*
X23616Y29128D01*
X24194Y28684D01*
X24868Y28405D01*
X25591Y28310D01*
X25858Y28345D01*
X26234Y28016D01*
Y9102D01*
X25878Y8570D01*
X25740Y7874D01*
X25878Y7178D01*
X26273Y6588D01*
X26863Y6193D01*
X27559Y6055D01*
X28255Y6193D01*
X28845Y6588D01*
X29240Y7178D01*
X29378Y7874D01*
X29240Y8570D01*
X28885Y9102D01*
Y29134D01*
X28884Y29138D01*
X29351Y29350D01*
X29522Y29128D01*
X30100Y28684D01*
X30773Y28405D01*
X31496Y28310D01*
X32219Y28405D01*
X32892Y28684D01*
X33471Y29128D01*
X33914Y29706D01*
X34193Y30380D01*
X34197Y30405D01*
X34701D01*
X34704Y30380D01*
X34983Y29706D01*
X35427Y29128D01*
X36005Y28684D01*
X36679Y28405D01*
X37402Y28310D01*
X38124Y28405D01*
X38798Y28684D01*
X39376Y29128D01*
X39820Y29706D01*
X40099Y30380D01*
X40194Y31102D01*
X40099Y31825D01*
X39820Y32499D01*
X39376Y33077D01*
X38798Y33521D01*
X38124Y33800D01*
X37402Y33895D01*
X36679Y33800D01*
X36005Y33521D01*
X35427Y33077D01*
X34983Y32499D01*
X34704Y31825D01*
X34701Y31800D01*
X34197D01*
X34193Y31825D01*
X33914Y32499D01*
X33471Y33077D01*
X32892Y33521D01*
X32219Y33800D01*
X31496Y33895D01*
D02*
G37*
G36*
X11811D02*
X11088Y33800D01*
X10415Y33521D01*
X9837Y33077D01*
X9393Y32499D01*
X9114Y31825D01*
X9110Y31800D01*
X8606D01*
X8603Y31825D01*
X8324Y32499D01*
X7880Y33077D01*
X7302Y33521D01*
X6628Y33800D01*
X5906Y33895D01*
X5183Y33800D01*
X4509Y33521D01*
X3931Y33077D01*
X3487Y32499D01*
X3208Y31825D01*
X3113Y31102D01*
X3208Y30380D01*
X3487Y29706D01*
X3931Y29128D01*
X4509Y28684D01*
X5183Y28405D01*
X5906Y28310D01*
X6628Y28405D01*
X7302Y28684D01*
X7880Y29128D01*
X8324Y29706D01*
X8603Y30380D01*
X8606Y30405D01*
X9110D01*
X9114Y30380D01*
X9393Y29706D01*
X9837Y29128D01*
X10415Y28684D01*
X11088Y28405D01*
X11811Y28310D01*
X12534Y28405D01*
X13207Y28684D01*
X13785Y29128D01*
X14229Y29706D01*
X14508Y30380D01*
X14512Y30405D01*
X15016D01*
X15019Y30380D01*
X15298Y29706D01*
X15742Y29128D01*
X16320Y28684D01*
X16994Y28405D01*
X17717Y28310D01*
X18439Y28405D01*
X19113Y28684D01*
X19691Y29128D01*
X20135Y29706D01*
X20414Y30380D01*
X20509Y31102D01*
X20414Y31825D01*
X20135Y32499D01*
X19691Y33077D01*
X19113Y33521D01*
X18439Y33800D01*
X17717Y33895D01*
X16994Y33800D01*
X16320Y33521D01*
X15742Y33077D01*
X15298Y32499D01*
X15019Y31825D01*
X15016Y31800D01*
X14512D01*
X14508Y31825D01*
X14229Y32499D01*
X13785Y33077D01*
X13207Y33521D01*
X12534Y33800D01*
X11811Y33895D01*
D02*
G37*
%LPD*%
G36*
X39764Y125984D02*
X23228D01*
Y145669D01*
X39764D01*
Y125984D01*
D02*
G37*
G36*
X126378Y129527D02*
X119685Y122835D01*
X113386Y122835D01*
X113386Y126418D01*
X113739Y126772D01*
X115748D01*
X117717Y128347D01*
Y151969D01*
X126378D01*
Y129527D01*
D02*
G37*
G36*
X59449Y116142D02*
X42913D01*
Y137795D01*
X59449D01*
Y116142D01*
D02*
G37*
G36*
X20079D02*
X3543D01*
Y137795D01*
X20079D01*
Y116142D01*
D02*
G37*
G36*
X59449Y82677D02*
X42913D01*
Y104331D01*
X59449D01*
Y82677D01*
D02*
G37*
G36*
X39764D02*
X23228D01*
Y114173D01*
X39764D01*
Y82677D01*
D02*
G37*
G36*
X20079D02*
X3543D01*
Y104331D01*
X20079D01*
Y82677D01*
D02*
G37*
G36*
X59449Y49213D02*
X42913D01*
Y70866D01*
X59449D01*
Y49213D01*
D02*
G37*
G36*
X39764D02*
X23228D01*
Y70866D01*
X39764D01*
Y49213D01*
D02*
G37*
G36*
X20079D02*
X3543D01*
Y70866D01*
X20079D01*
Y49213D01*
D02*
G37*
%LPC*%
G36*
X104331Y171797D02*
X103453Y171681D01*
X102635Y171342D01*
X101933Y170803D01*
X101394Y170101D01*
X101055Y169283D01*
X100940Y168405D01*
Y166240D01*
X101055Y165362D01*
X101394Y164544D01*
X101933Y163842D01*
X102635Y163303D01*
X103453Y162964D01*
X104331Y162849D01*
X105208Y162964D01*
X106026Y163303D01*
X106729Y163842D01*
X107268Y164544D01*
X107606Y165362D01*
X107722Y166240D01*
Y168405D01*
X107606Y169283D01*
X107268Y170101D01*
X106729Y170803D01*
X106026Y171342D01*
X105208Y171681D01*
X104331Y171797D01*
D02*
G37*
G36*
X96457D02*
X95579Y171681D01*
X94761Y171342D01*
X94059Y170803D01*
X93520Y170101D01*
X93181Y169283D01*
X93066Y168405D01*
Y166240D01*
X93181Y165362D01*
X93520Y164544D01*
X94059Y163842D01*
X94761Y163303D01*
X95579Y162964D01*
X96457Y162849D01*
X97334Y162964D01*
X98152Y163303D01*
X98855Y163842D01*
X99394Y164544D01*
X99732Y165362D01*
X99848Y166240D01*
Y168405D01*
X99732Y169283D01*
X99394Y170101D01*
X98855Y170803D01*
X98152Y171342D01*
X97334Y171681D01*
X96457Y171797D01*
D02*
G37*
%LPD*%
D53*
X78724Y145457D02*
X83485Y140696D01*
X82677Y45866D02*
X84646Y43898D01*
X76339Y53898D02*
X79134Y51102D01*
Y35039D02*
Y51102D01*
Y35039D02*
X86614Y27559D01*
X76339Y43898D02*
Y50433D01*
X66142Y60630D02*
X76339Y50433D01*
X66142Y60630D02*
Y81496D01*
X64961Y19685D02*
X83071D01*
X91339Y27953D01*
Y43898D01*
X86339Y48898D02*
X91339Y43898D01*
X66142Y81496D02*
Y112205D01*
X67323Y113386D01*
X68898Y61339D02*
X76339Y53898D01*
X68898Y61339D02*
Y83858D01*
X84252Y65984D02*
Y94488D01*
X87008Y68504D02*
Y144882D01*
X88976Y70079D02*
Y147244D01*
Y70079D02*
X90551Y68504D01*
X85039Y151181D02*
X88976Y147244D01*
X80709Y151181D02*
X85039D01*
X78347Y148819D02*
X80709Y151181D01*
X87008Y68504D02*
X88623Y66889D01*
X83071Y148819D02*
X87008Y144882D01*
X84252Y65984D02*
X86339Y63898D01*
X90551Y58110D02*
Y68504D01*
X86339Y53898D02*
X90551Y58110D01*
X88623Y61182D02*
Y66889D01*
X86339Y58898D02*
X88623Y61182D01*
X83485Y116162D02*
Y140696D01*
X81480Y114157D02*
X83485Y116162D01*
X98425Y108268D02*
Y115748D01*
X94882Y119291D02*
X98425Y115748D01*
X94882Y119291D02*
Y126378D01*
X97441Y128937D01*
X93701Y137795D02*
X100000Y131496D01*
Y127953D02*
Y131496D01*
X97244Y125197D02*
X100000Y127953D01*
X67323Y148819D02*
X78347D01*
X81480Y64976D02*
Y114157D01*
Y64976D02*
X82677Y63779D01*
Y45866D02*
Y63779D01*
X96457Y106299D02*
X98425Y108268D01*
X96457Y38976D02*
Y106299D01*
X76378Y63937D02*
Y103150D01*
X76339Y63898D02*
X76378Y63937D01*
X79528Y62087D02*
Y118110D01*
X76339Y58898D02*
X79528Y62087D01*
X78724Y145457D02*
X78740Y145472D01*
X25591Y31102D02*
X27559Y29134D01*
Y7874D02*
Y29134D01*
X97244Y120866D02*
Y125197D01*
D54*
X62992Y26378D02*
Y76772D01*
X61024Y24409D02*
X62992Y26378D01*
Y76772D02*
Y93307D01*
Y150000D01*
X57087Y155905D02*
X62992Y150000D01*
D56*
X122047Y38976D02*
D03*
D57*
Y48976D02*
D03*
X132047Y38976D02*
D03*
Y48976D02*
D03*
X142047Y38976D02*
D03*
Y48976D02*
D03*
D58*
X122047Y139764D02*
D03*
Y68898D02*
D03*
D59*
Y147638D02*
D03*
Y76772D02*
D03*
Y84646D02*
D03*
D60*
X61024Y167323D02*
D03*
X120079D02*
D03*
D61*
X53150D02*
D03*
X96457D02*
D03*
X104331D02*
D03*
X112205D02*
D03*
D62*
X140748Y186024D02*
D03*
X10827D02*
D03*
X140748Y10827D02*
D03*
X10827D02*
D03*
D63*
X37402Y107874D02*
D03*
X25591D02*
D03*
X5906Y98425D02*
D03*
Y88976D02*
D03*
X17717D02*
D03*
X57087D02*
D03*
X45276D02*
D03*
X37402D02*
D03*
X25591D02*
D03*
X17717Y98425D02*
D03*
X11811Y88976D02*
D03*
X61024Y180709D02*
D03*
X55118D02*
D03*
X49213D02*
D03*
X11811Y172835D02*
D03*
X5906D02*
D03*
X17717D02*
D03*
X31496Y180709D02*
D03*
X37402D02*
D03*
X25591D02*
D03*
X45276Y64567D02*
D03*
X82677Y3937D02*
D03*
X72835D02*
D03*
X82677Y13780D02*
D03*
X57087Y131496D02*
D03*
X45276D02*
D03*
X57087Y98032D02*
D03*
X45276D02*
D03*
X57087Y64567D02*
D03*
X37402D02*
D03*
X25591D02*
D03*
X17717D02*
D03*
X5906D02*
D03*
X57087Y55512D02*
D03*
X45276D02*
D03*
X37402D02*
D03*
X25591D02*
D03*
X17717D02*
D03*
X5906D02*
D03*
X57087Y31102D02*
D03*
X45276D02*
D03*
X51181Y31102D02*
D03*
X37402Y31102D02*
D03*
X25591D02*
D03*
X31496Y31102D02*
D03*
X17717Y31102D02*
D03*
X5906D02*
D03*
X11811Y31102D02*
D03*
X25591Y132283D02*
D03*
X31496Y132283D02*
D03*
X45276Y122441D02*
D03*
X57087D02*
D03*
X51181Y122441D02*
D03*
X17717Y122835D02*
D03*
X5906D02*
D03*
X11811Y122835D02*
D03*
Y131890D02*
D03*
X17717Y131890D02*
D03*
X37402Y132283D02*
D03*
X5906Y131890D02*
D03*
X37795Y141339D02*
D03*
X25197D02*
D03*
X45276Y155905D02*
D03*
X57087D02*
D03*
X51181Y155905D02*
D03*
X37402Y165748D02*
D03*
X25591D02*
D03*
X31496Y165748D02*
D03*
X5906Y156299D02*
D03*
X17717D02*
D03*
X11811Y156299D02*
D03*
X57087Y143701D02*
D03*
X45276D02*
D03*
X51181D02*
D03*
X57087Y110236D02*
D03*
X45276D02*
D03*
X51181D02*
D03*
X57087Y76772D02*
D03*
X45276D02*
D03*
X51181D02*
D03*
X37402D02*
D03*
X25591D02*
D03*
X31496D02*
D03*
X57087Y43307D02*
D03*
X45276D02*
D03*
X51181D02*
D03*
X37402D02*
D03*
X25591D02*
D03*
X31496D02*
D03*
X17717D02*
D03*
X5906D02*
D03*
X11811D02*
D03*
X17717Y76772D02*
D03*
X5906D02*
D03*
X11811D02*
D03*
X37402Y120079D02*
D03*
X25591D02*
D03*
X31496D02*
D03*
X25591Y151575D02*
D03*
X37402D02*
D03*
X31496D02*
D03*
X17717Y143701D02*
D03*
X5906D02*
D03*
X11811D02*
D03*
X18110Y110236D02*
D03*
X5906D02*
D03*
X11811D02*
D03*
X51181Y55512D02*
D03*
Y64567D02*
D03*
X31496D02*
D03*
Y55512D02*
D03*
X11811Y55512D02*
D03*
Y64567D02*
D03*
X31496Y141339D02*
D03*
X51181Y131496D02*
D03*
Y88976D02*
D03*
Y98032D02*
D03*
X31496Y88976D02*
D03*
Y107874D02*
D03*
X11811Y98425D02*
D03*
D64*
X105118Y118110D02*
D03*
X82677Y36614D02*
D03*
X64961Y19685D02*
D03*
X61024Y24409D02*
D03*
X86614Y27559D02*
D03*
X66142Y81496D02*
D03*
X68898Y83858D02*
D03*
X84252Y94488D02*
D03*
X84646Y43898D02*
D03*
X96457Y38976D02*
D03*
X76378Y103150D02*
D03*
X78740Y145472D02*
D03*
X83071Y148819D02*
D03*
X67323D02*
D03*
X106299Y159449D02*
D03*
X102362D02*
D03*
X98425D02*
D03*
X94488D02*
D03*
X70866Y145669D02*
D03*
X80709Y132677D02*
D03*
X92126Y85827D02*
D03*
X147638Y155512D02*
D03*
X62992Y76772D02*
D03*
Y93307D02*
D03*
X92126Y133858D02*
D03*
Y113386D02*
D03*
X27559Y7874D02*
D03*
X97244Y120866D02*
D03*
X98425Y108268D02*
D03*
X86339Y63898D02*
D03*
Y58898D02*
D03*
Y53898D02*
D03*
Y48898D02*
D03*
X76339Y63898D02*
D03*
Y58898D02*
D03*
Y43898D02*
D03*
Y53898D02*
D03*
X97441Y128937D02*
D03*
X106299Y132283D02*
D03*
Y127953D02*
D03*
X93701Y137795D02*
D03*
X67323Y113386D02*
D03*
D65*
X115748Y124803D02*
D03*
X118898D02*
D03*
D67*
X79528Y118110D02*
D03*
M02*
