G04*
G04 #@! TF.GenerationSoftware,Altium Limited,Altium Designer,20.0.2 (26)*
G04*
G04 Layer_Color=8150272*
%FSLAX25Y25*%
%MOIN*%
G70*
G01*
G75*
%ADD31R,0.07893X0.07893*%
%ADD32C,0.07893*%
G04:AMPARAMS|DCode=33|XSize=59.24mil|YSize=80.9mil|CornerRadius=17.81mil|HoleSize=0mil|Usage=FLASHONLY|Rotation=90.000|XOffset=0mil|YOffset=0mil|HoleType=Round|Shape=RoundedRectangle|*
%AMROUNDEDRECTD33*
21,1,0.05924,0.04528,0,0,90.0*
21,1,0.02362,0.08090,0,0,90.0*
1,1,0.03562,0.02264,0.01181*
1,1,0.03562,0.02264,-0.01181*
1,1,0.03562,-0.02264,-0.01181*
1,1,0.03562,-0.02264,0.01181*
%
%ADD33ROUNDEDRECTD33*%
%ADD34O,0.08090X0.05924*%
G04:AMPARAMS|DCode=35|XSize=59.24mil|YSize=80.9mil|CornerRadius=17.81mil|HoleSize=0mil|Usage=FLASHONLY|Rotation=180.000|XOffset=0mil|YOffset=0mil|HoleType=Round|Shape=RoundedRectangle|*
%AMROUNDEDRECTD35*
21,1,0.05924,0.04528,0,0,180.0*
21,1,0.02362,0.08090,0,0,180.0*
1,1,0.03562,-0.01181,0.02264*
1,1,0.03562,0.01181,0.02264*
1,1,0.03562,0.01181,-0.02264*
1,1,0.03562,-0.01181,-0.02264*
%
%ADD35ROUNDEDRECTD35*%
%ADD36O,0.05924X0.08090*%
%ADD37C,0.19310*%
D31*
X122047Y38976D02*
D03*
D32*
Y48976D02*
D03*
X132047Y38976D02*
D03*
Y48976D02*
D03*
X142047Y38976D02*
D03*
Y48976D02*
D03*
D33*
X122047Y139764D02*
D03*
Y68898D02*
D03*
D34*
Y147638D02*
D03*
Y76772D02*
D03*
Y84646D02*
D03*
D35*
X61024Y167323D02*
D03*
X120079D02*
D03*
D36*
X53150D02*
D03*
X96457D02*
D03*
X104331D02*
D03*
X112205D02*
D03*
D37*
X140748Y186024D02*
D03*
X10827D02*
D03*
X140748Y10827D02*
D03*
X10827D02*
D03*
M02*
