G04*
G04 #@! TF.GenerationSoftware,Altium Limited,Altium Designer,20.0.2 (26)*
G04*
G04 Layer_Color=7318015*
%FSLAX25Y25*%
%MOIN*%
G70*
G01*
G75*
%ADD20O,0.03759X0.09074*%
%ADD21O,0.08287X0.03562*%
%ADD22R,0.06121X0.03956*%
%ADD23R,0.03956X0.06121*%
%ADD24R,0.05924X0.05137*%
%ADD25R,0.05767X0.06987*%
%ADD26R,0.16161X0.09074*%
%ADD27R,0.06987X0.05767*%
%ADD28R,0.03562X0.05924*%
%ADD29R,0.04350X0.02184*%
%ADD30R,0.14665X0.06121*%
D20*
X76240Y164567D02*
D03*
X81240D02*
D03*
X76240Y189764D02*
D03*
X81240D02*
D03*
D21*
X70866Y68898D02*
D03*
Y63898D02*
D03*
Y58898D02*
D03*
Y53898D02*
D03*
Y48898D02*
D03*
Y43898D02*
D03*
Y38898D02*
D03*
X91339Y68898D02*
D03*
Y63898D02*
D03*
Y58898D02*
D03*
Y53898D02*
D03*
Y48898D02*
D03*
Y43898D02*
D03*
Y38898D02*
D03*
D22*
X83661Y145472D02*
D03*
Y137992D02*
D03*
X93504Y141732D02*
D03*
X83661Y98228D02*
D03*
Y90748D02*
D03*
X93504Y94488D02*
D03*
D23*
X69095Y9646D02*
D03*
X76575D02*
D03*
X72835Y19488D02*
D03*
D24*
X146457Y169291D02*
D03*
Y162205D02*
D03*
X135433D02*
D03*
Y169291D02*
D03*
D25*
X83110Y153543D02*
D03*
X90118D02*
D03*
X74370D02*
D03*
X67362D02*
D03*
X85079Y118110D02*
D03*
X92087D02*
D03*
X85079Y127953D02*
D03*
X92087D02*
D03*
X67362Y137795D02*
D03*
X74370D02*
D03*
X67362Y127953D02*
D03*
X74370D02*
D03*
X67362Y118110D02*
D03*
X74370D02*
D03*
Y108268D02*
D03*
X67362D02*
D03*
X85079D02*
D03*
X92087D02*
D03*
X74370Y98425D02*
D03*
X67362D02*
D03*
Y88583D02*
D03*
X74370D02*
D03*
X67362Y76772D02*
D03*
X74370D02*
D03*
X85079D02*
D03*
X92087D02*
D03*
X109803Y108268D02*
D03*
X102795D02*
D03*
X109803Y98819D02*
D03*
X102795D02*
D03*
X109803Y118110D02*
D03*
X102795D02*
D03*
Y137795D02*
D03*
X109803D02*
D03*
X27992Y98425D02*
D03*
X35000D02*
D03*
X37835Y9843D02*
D03*
X44842D02*
D03*
X53583D02*
D03*
X60590D02*
D03*
X37835Y19685D02*
D03*
X44842D02*
D03*
X60590D02*
D03*
X53583D02*
D03*
D26*
X131890Y123622D02*
D03*
Y112598D02*
D03*
D27*
X117323Y124370D02*
D03*
Y117362D02*
D03*
X27559Y20433D02*
D03*
Y13425D02*
D03*
D28*
X106299Y127953D02*
D03*
D29*
X102638Y130905D02*
D03*
Y128937D02*
D03*
Y126969D02*
D03*
Y125000D02*
D03*
X109961Y130905D02*
D03*
Y128937D02*
D03*
Y126969D02*
D03*
Y125000D02*
D03*
D30*
X51181Y98032D02*
D03*
Y122441D02*
D03*
Y131496D02*
D03*
Y155905D02*
D03*
X31496Y141339D02*
D03*
Y165748D02*
D03*
Y107874D02*
D03*
Y132283D02*
D03*
X51181Y64567D02*
D03*
Y88976D02*
D03*
X31496Y64567D02*
D03*
Y88976D02*
D03*
X51181Y31102D02*
D03*
Y55512D02*
D03*
X31496Y31102D02*
D03*
Y55512D02*
D03*
X11811Y31102D02*
D03*
Y55512D02*
D03*
Y88976D02*
D03*
Y64567D02*
D03*
Y156299D02*
D03*
Y131890D02*
D03*
Y122835D02*
D03*
Y98425D02*
D03*
M02*
